<svg width="136" height="85" viewBox="0 0 136 85" fill="none" xmlns="http://www.w3.org/2000/svg">
<g id="cff1">
<path id="Rectangle 6" d="M-1 0H72.1371L104 43L72.1371 85H-1V0Z" fill="#82C244"/>
<path id="Icon" d="M60.6667 40.9286V42.8453C60.6641 47.3378 59.2094 51.7092 56.5194 55.3074C53.8295 58.9056 50.0485 61.5379 45.7403 62.8117C41.4321 64.0855 36.8276 63.9325 32.6135 62.3756C28.3993 60.8187 24.8014 57.9413 22.3562 54.1725C19.911 50.4037 18.7496 45.9454 19.0452 41.4626C19.3408 36.9798 21.0775 32.7126 23.9964 29.2975C26.9153 25.8824 30.86 23.5023 35.2421 22.5122C39.6242 21.5222 44.2089 21.9751 48.3125 23.8036M60.6667 26.1786L39.8333 47.0328L33.5833 40.7828" stroke="#F5F5F5" stroke-width="4" stroke-linecap="round" stroke-linejoin="round"/>
</g>
</svg>
