<svg width="46" height="46" viewBox="0 0 46 46" fill="none" xmlns="http://www.w3.org/2000/svg">
<g id="address">
<rect x="0.213867" y="0.606445" width="45" height="45" rx="22.5" fill="#82C244"/>
<path id="Vector" d="M23.3567 41.749C23.3567 41.749 10.4996 25.315 10.4996 18.349C10.4996 16.6944 10.8321 15.0559 11.4783 13.5272C12.1244 11.9985 13.0715 10.6095 14.2654 9.43948C15.4592 8.26946 16.8766 7.34135 18.4365 6.70814C19.9964 6.07493 21.6683 5.74902 23.3567 5.74902C25.0451 5.74902 26.717 6.07493 28.2769 6.70814C29.8368 7.34135 31.2542 8.26946 32.4481 9.43948C33.642 10.6095 34.589 11.9985 35.2352 13.5272C35.8813 15.0559 36.2139 16.6944 36.2139 18.349C36.2139 25.315 23.3567 41.749 23.3567 41.749ZM23.3567 21.949C24.331 21.949 25.2653 21.5697 25.9543 20.8946C26.6432 20.2195 27.0302 19.3038 27.0302 18.349C27.0302 17.3942 26.6432 16.4786 25.9543 15.8034C25.2653 15.1283 24.331 14.749 23.3567 14.749C22.3825 14.749 21.4481 15.1283 20.7592 15.8034C20.0703 16.4786 19.6833 17.3942 19.6833 18.349C19.6833 19.3038 20.0703 20.2195 20.7592 20.8946C21.4481 21.5697 22.3825 21.949 23.3567 21.949Z" fill="white"/>
</g>
</svg>
