<svg width="32" height="32" viewBox="0 0 33 32" fill="none" xmlns="http://www.w3.org/2000/svg">
<g id="uil:linkedin">
<path id="Vector" d="M28.1462 2.6662H4.85374C4.59191 2.66268 4.33193 2.7092 4.08864 2.80311C3.84536 2.89703 3.62353 3.0365 3.43584 3.21355C3.24814 3.39061 3.09825 3.60178 2.99473 3.83501C2.8912 4.06825 2.83608 4.31897 2.83249 4.57287V27.4262C2.83608 27.6801 2.8912 27.9308 2.99473 28.1641C3.09825 28.3973 3.24814 28.6085 3.43584 28.7855C3.62353 28.9626 3.84536 29.102 4.08864 29.196C4.33193 29.2899 4.59191 29.3364 4.85374 29.3329H28.1462C28.4081 29.3364 28.6681 29.2899 28.9113 29.196C29.1546 29.102 29.3764 28.9626 29.5641 28.7855C29.7518 28.6085 29.9017 28.3973 30.0053 28.1641C30.1088 27.9308 30.1639 27.6801 30.1675 27.4262V4.57287C30.1639 4.31897 30.1088 4.06825 30.0053 3.83501C29.9017 3.60178 29.7518 3.39061 29.5641 3.21355C29.3764 3.0365 29.1546 2.89703 28.9113 2.80311C28.6681 2.7092 28.4081 2.66268 28.1462 2.6662ZM11.1237 24.9862H6.99874V12.9862H11.1237V24.9862ZM9.06124 11.3062C8.49235 11.3062 7.94676 11.0871 7.5445 10.697C7.14223 10.3069 6.91624 9.77785 6.91624 9.2262C6.91624 8.67455 7.14223 8.1455 7.5445 7.75542C7.94676 7.36534 8.49235 7.1462 9.06124 7.1462C9.36332 7.11298 9.66923 7.14201 9.95894 7.23138C10.2487 7.32075 10.5156 7.46845 10.7424 7.66482C10.9692 7.86118 11.1506 8.10177 11.2748 8.37084C11.399 8.63992 11.4633 8.9314 11.4633 9.2262C11.4633 9.52101 11.399 9.81249 11.2748 10.0816C11.1506 10.3506 10.9692 10.5912 10.7424 10.7876C10.5156 10.9839 10.2487 11.1317 9.95894 11.221C9.66923 11.3104 9.36332 11.3394 9.06124 11.3062ZM26.0012 24.9862H21.8762V18.5462C21.8762 16.9329 21.285 15.8795 19.7862 15.8795C19.3224 15.8828 18.8708 16.0239 18.4921 16.2838C18.1135 16.5436 17.8262 16.9098 17.6687 17.3329C17.5611 17.6463 17.5145 17.9763 17.5312 18.3062V24.9729H13.4062V12.9729H17.5312V14.6662C17.906 14.0357 18.451 13.5162 19.1076 13.1638C19.7642 12.8114 20.5075 12.6393 21.2575 12.6662C24.0075 12.6662 26.0012 14.3862 26.0012 18.0795V24.9862Z" fill="white"/>
</g>
</svg>
