<svg width="46" height="46" viewBox="0 0 46 46" fill="none" xmlns="http://www.w3.org/2000/svg">
<g id="phone">
<rect x="0.213867" y="0.606445" width="45" height="45" rx="22.5" fill="#82C244"/>
<path id="Vector" d="M13.7139 9.60645C12.5204 9.60645 11.3758 10.0806 10.5319 10.9245C9.68797 11.7684 9.21387 12.913 9.21387 14.1064L9.21387 17.7064C9.21387 28.1446 17.6757 36.6064 28.1139 36.6064H31.7139C32.9073 36.6064 34.0519 36.1323 34.8958 35.2884C35.7398 34.4445 36.2139 33.2999 36.2139 32.1064V29.6188C36.2139 29.1172 36.0741 28.6254 35.8102 28.1987C35.5463 27.772 35.1687 27.4273 34.7199 27.2032L30.3729 25.0288C30.0268 24.8558 29.6475 24.7592 29.2609 24.7455C28.8742 24.7319 28.4891 24.8015 28.1316 24.9497C27.7742 25.0978 27.4528 25.3211 27.1891 25.6043C26.9255 25.8875 26.7259 26.2241 26.6037 26.5912L26.0673 28.1986C25.9685 28.4936 25.7656 28.7425 25.4966 28.8986C25.2275 29.0546 24.9107 29.1072 24.6057 29.0464C22.6735 28.6592 20.899 27.7093 19.5055 26.316C18.1119 24.9228 17.1615 23.1485 16.7739 21.2164C16.7131 20.9114 16.7657 20.5946 16.9218 20.3255C17.0778 20.0565 17.3267 19.8536 17.6217 19.7548L19.6179 19.0888C20.263 18.8734 20.803 18.4225 21.13 17.8261C21.4571 17.2298 21.547 16.532 21.3819 15.8722L20.3271 11.653C20.1814 11.069 19.8447 10.5503 19.3705 10.1795C18.8963 9.80872 18.3118 9.60701 17.7099 9.60645H13.7139Z" fill="white"/>
</g>
</svg>
